<mxfile host="app.diagrams.net" modified="2020-09-02T18:29:53.850Z" agent="5.0 (X11)" etag="dV5Pd-CjiqFW8y4U8zOm" version="13.6.6" type="github">
  <diagram id="IGFOYBzcaIaXBu0yNVcH" name="Page-1">
    <mxGraphModel dx="781" dy="1125" grid="1" gridSize="10" guides="1" tooltips="1" connect="1" arrows="1" fold="1" page="1" pageScale="1" pageWidth="850" pageHeight="1100" math="0" shadow="0">
      <root>
        <mxCell id="0" />
        <mxCell id="1" parent="0" />
        <mxCell id="PcWkwQkxWYhMpcfrEpxx-15" style="edgeStyle=orthogonalEdgeStyle;rounded=0;orthogonalLoop=1;jettySize=auto;html=1;exitX=0.5;exitY=1;exitDx=0;exitDy=0;entryX=0.5;entryY=0;entryDx=0;entryDy=0;" edge="1" parent="1" source="PcWkwQkxWYhMpcfrEpxx-1" target="PcWkwQkxWYhMpcfrEpxx-6">
          <mxGeometry relative="1" as="geometry" />
        </mxCell>
        <mxCell id="PcWkwQkxWYhMpcfrEpxx-1" value="testing" style="ellipse;whiteSpace=wrap;html=1;" vertex="1" parent="1">
          <mxGeometry x="280" y="20" width="120" height="80" as="geometry" />
        </mxCell>
        <mxCell id="PcWkwQkxWYhMpcfrEpxx-26" style="edgeStyle=orthogonalEdgeStyle;rounded=0;orthogonalLoop=1;jettySize=auto;html=1;exitX=0.5;exitY=1;exitDx=0;exitDy=0;" edge="1" parent="1" source="PcWkwQkxWYhMpcfrEpxx-6" target="PcWkwQkxWYhMpcfrEpxx-16">
          <mxGeometry relative="1" as="geometry" />
        </mxCell>
        <mxCell id="PcWkwQkxWYhMpcfrEpxx-27" style="edgeStyle=orthogonalEdgeStyle;rounded=0;orthogonalLoop=1;jettySize=auto;html=1;exitX=0.5;exitY=1;exitDx=0;exitDy=0;entryX=0.5;entryY=0;entryDx=0;entryDy=0;" edge="1" parent="1" source="PcWkwQkxWYhMpcfrEpxx-6" target="PcWkwQkxWYhMpcfrEpxx-17">
          <mxGeometry relative="1" as="geometry" />
        </mxCell>
        <mxCell id="PcWkwQkxWYhMpcfrEpxx-28" style="edgeStyle=orthogonalEdgeStyle;rounded=0;orthogonalLoop=1;jettySize=auto;html=1;exitX=0.5;exitY=1;exitDx=0;exitDy=0;" edge="1" parent="1" source="PcWkwQkxWYhMpcfrEpxx-6" target="PcWkwQkxWYhMpcfrEpxx-19">
          <mxGeometry relative="1" as="geometry" />
        </mxCell>
        <mxCell id="PcWkwQkxWYhMpcfrEpxx-29" style="edgeStyle=orthogonalEdgeStyle;rounded=0;orthogonalLoop=1;jettySize=auto;html=1;exitX=0.5;exitY=1;exitDx=0;exitDy=0;entryX=0.5;entryY=0;entryDx=0;entryDy=0;" edge="1" parent="1" source="PcWkwQkxWYhMpcfrEpxx-6" target="PcWkwQkxWYhMpcfrEpxx-18">
          <mxGeometry relative="1" as="geometry" />
        </mxCell>
        <mxCell id="PcWkwQkxWYhMpcfrEpxx-6" value="funshional" style="rounded=1;whiteSpace=wrap;html=1;" vertex="1" parent="1">
          <mxGeometry x="280" y="130" width="120" height="60" as="geometry" />
        </mxCell>
        <mxCell id="PcWkwQkxWYhMpcfrEpxx-30" style="edgeStyle=orthogonalEdgeStyle;rounded=0;orthogonalLoop=1;jettySize=auto;html=1;exitX=0.5;exitY=1;exitDx=0;exitDy=0;entryX=0.5;entryY=0;entryDx=0;entryDy=0;" edge="1" parent="1" source="PcWkwQkxWYhMpcfrEpxx-16" target="PcWkwQkxWYhMpcfrEpxx-20">
          <mxGeometry relative="1" as="geometry" />
        </mxCell>
        <mxCell id="PcWkwQkxWYhMpcfrEpxx-31" style="edgeStyle=orthogonalEdgeStyle;rounded=0;orthogonalLoop=1;jettySize=auto;html=1;exitX=0.5;exitY=1;exitDx=0;exitDy=0;entryX=0.5;entryY=0;entryDx=0;entryDy=0;" edge="1" parent="1" source="PcWkwQkxWYhMpcfrEpxx-16" target="PcWkwQkxWYhMpcfrEpxx-21">
          <mxGeometry relative="1" as="geometry" />
        </mxCell>
        <mxCell id="PcWkwQkxWYhMpcfrEpxx-16" value="GET" style="rounded=1;whiteSpace=wrap;html=1;" vertex="1" parent="1">
          <mxGeometry x="30" y="230" width="120" height="60" as="geometry" />
        </mxCell>
        <mxCell id="PcWkwQkxWYhMpcfrEpxx-32" style="edgeStyle=orthogonalEdgeStyle;rounded=0;orthogonalLoop=1;jettySize=auto;html=1;exitX=0.5;exitY=1;exitDx=0;exitDy=0;entryX=0.5;entryY=0;entryDx=0;entryDy=0;" edge="1" parent="1" source="PcWkwQkxWYhMpcfrEpxx-17" target="PcWkwQkxWYhMpcfrEpxx-24">
          <mxGeometry relative="1" as="geometry" />
        </mxCell>
        <mxCell id="PcWkwQkxWYhMpcfrEpxx-17" value="POST" style="rounded=1;whiteSpace=wrap;html=1;" vertex="1" parent="1">
          <mxGeometry x="240" y="230" width="120" height="60" as="geometry" />
        </mxCell>
        <mxCell id="PcWkwQkxWYhMpcfrEpxx-35" style="edgeStyle=orthogonalEdgeStyle;rounded=0;orthogonalLoop=1;jettySize=auto;html=1;exitX=0.5;exitY=1;exitDx=0;exitDy=0;" edge="1" parent="1" source="PcWkwQkxWYhMpcfrEpxx-18" target="PcWkwQkxWYhMpcfrEpxx-25">
          <mxGeometry relative="1" as="geometry" />
        </mxCell>
        <mxCell id="PcWkwQkxWYhMpcfrEpxx-18" value="PUT" style="rounded=1;whiteSpace=wrap;html=1;" vertex="1" parent="1">
          <mxGeometry x="650" y="230" width="120" height="60" as="geometry" />
        </mxCell>
        <mxCell id="PcWkwQkxWYhMpcfrEpxx-33" style="edgeStyle=orthogonalEdgeStyle;rounded=0;orthogonalLoop=1;jettySize=auto;html=1;exitX=0.5;exitY=1;exitDx=0;exitDy=0;entryX=0.5;entryY=0;entryDx=0;entryDy=0;" edge="1" parent="1" source="PcWkwQkxWYhMpcfrEpxx-19" target="PcWkwQkxWYhMpcfrEpxx-23">
          <mxGeometry relative="1" as="geometry" />
        </mxCell>
        <mxCell id="PcWkwQkxWYhMpcfrEpxx-34" style="edgeStyle=orthogonalEdgeStyle;rounded=0;orthogonalLoop=1;jettySize=auto;html=1;exitX=0.5;exitY=1;exitDx=0;exitDy=0;" edge="1" parent="1" source="PcWkwQkxWYhMpcfrEpxx-19" target="PcWkwQkxWYhMpcfrEpxx-22">
          <mxGeometry relative="1" as="geometry" />
        </mxCell>
        <mxCell id="PcWkwQkxWYhMpcfrEpxx-19" value="DELETE" style="rounded=1;whiteSpace=wrap;html=1;" vertex="1" parent="1">
          <mxGeometry x="440" y="230" width="120" height="60" as="geometry" />
        </mxCell>
        <mxCell id="PcWkwQkxWYhMpcfrEpxx-20" value="GET ALL" style="rounded=1;whiteSpace=wrap;html=1;" vertex="1" parent="1">
          <mxGeometry x="10" y="330" width="120" height="60" as="geometry" />
        </mxCell>
        <mxCell id="PcWkwQkxWYhMpcfrEpxx-21" value="GET ID" style="rounded=1;whiteSpace=wrap;html=1;" vertex="1" parent="1">
          <mxGeometry x="150" y="330" width="120" height="60" as="geometry" />
        </mxCell>
        <mxCell id="PcWkwQkxWYhMpcfrEpxx-22" value="DELETE ID" style="rounded=1;whiteSpace=wrap;html=1;" vertex="1" parent="1">
          <mxGeometry x="540" y="330" width="120" height="60" as="geometry" />
        </mxCell>
        <mxCell id="PcWkwQkxWYhMpcfrEpxx-23" value="DELETE ALL" style="rounded=1;whiteSpace=wrap;html=1;" vertex="1" parent="1">
          <mxGeometry x="410" y="330" width="120" height="60" as="geometry" />
        </mxCell>
        <mxCell id="PcWkwQkxWYhMpcfrEpxx-24" value="create new" style="rounded=1;whiteSpace=wrap;html=1;" vertex="1" parent="1">
          <mxGeometry x="280" y="330" width="120" height="60" as="geometry" />
        </mxCell>
        <mxCell id="PcWkwQkxWYhMpcfrEpxx-42" style="edgeStyle=orthogonalEdgeStyle;rounded=0;orthogonalLoop=1;jettySize=auto;html=1;exitX=0.75;exitY=1;exitDx=0;exitDy=0;entryX=1;entryY=0.5;entryDx=0;entryDy=0;" edge="1" parent="1" source="PcWkwQkxWYhMpcfrEpxx-25" target="PcWkwQkxWYhMpcfrEpxx-36">
          <mxGeometry relative="1" as="geometry" />
        </mxCell>
        <mxCell id="PcWkwQkxWYhMpcfrEpxx-43" style="edgeStyle=orthogonalEdgeStyle;rounded=0;orthogonalLoop=1;jettySize=auto;html=1;exitX=0.75;exitY=1;exitDx=0;exitDy=0;entryX=1;entryY=0.5;entryDx=0;entryDy=0;" edge="1" parent="1" source="PcWkwQkxWYhMpcfrEpxx-25" target="PcWkwQkxWYhMpcfrEpxx-37">
          <mxGeometry relative="1" as="geometry" />
        </mxCell>
        <mxCell id="PcWkwQkxWYhMpcfrEpxx-44" style="edgeStyle=orthogonalEdgeStyle;rounded=0;orthogonalLoop=1;jettySize=auto;html=1;exitX=0.75;exitY=1;exitDx=0;exitDy=0;entryX=1;entryY=0.5;entryDx=0;entryDy=0;" edge="1" parent="1" source="PcWkwQkxWYhMpcfrEpxx-25" target="PcWkwQkxWYhMpcfrEpxx-38">
          <mxGeometry relative="1" as="geometry" />
        </mxCell>
        <mxCell id="PcWkwQkxWYhMpcfrEpxx-25" value="change " style="rounded=1;whiteSpace=wrap;html=1;" vertex="1" parent="1">
          <mxGeometry x="660" y="410" width="120" height="60" as="geometry" />
        </mxCell>
        <mxCell id="PcWkwQkxWYhMpcfrEpxx-36" value="type" style="rounded=1;whiteSpace=wrap;html=1;" vertex="1" parent="1">
          <mxGeometry x="600" y="490" width="120" height="60" as="geometry" />
        </mxCell>
        <mxCell id="PcWkwQkxWYhMpcfrEpxx-37" value="name" style="rounded=1;whiteSpace=wrap;html=1;" vertex="1" parent="1">
          <mxGeometry x="600" y="560" width="120" height="60" as="geometry" />
        </mxCell>
        <mxCell id="PcWkwQkxWYhMpcfrEpxx-38" value="age" style="rounded=1;whiteSpace=wrap;html=1;" vertex="1" parent="1">
          <mxGeometry x="600" y="630" width="120" height="60" as="geometry" />
        </mxCell>
      </root>
    </mxGraphModel>
  </diagram>
</mxfile>
